<?xml version="1.0" encoding="UTF-8"?>
<!-- Created with Inkscape (http://www.inkscape.org/) -->
<svg width="350" height="350" version="1.1" viewBox="0 0 92.604 92.604" xml:space="preserve" xmlns="http://www.w3.org/2000/svg" xmlns:xlink="http://www.w3.org/1999/xlink"><defs><linearGradient id="linearGradient15" x1="98.305" x2="98.305" y1="105.54" y2="191.73" gradientTransform="translate(-58.698 -102.2)" gradientUnits="userSpaceOnUse"><stop stop-color="#c2c2c2" offset="0"/><stop stop-color="#fff" offset=".082507"/><stop stop-color="#fefefe" offset=".12816"/><stop stop-color="#c0c0c0" offset=".33284"/><stop stop-color="#fff" offset=".50146"/><stop stop-color="#b9b9b9" offset=".58361"/><stop stop-color="#fefefe" offset=".75389"/><stop stop-color="#b9b9b9" offset="1"/></linearGradient></defs><path d="m83.688 25.19s-1.3795 6.1513-8.0347 12.077c-5.8425 5.2024-14.458 8.0465-14.458 8.0465s-5.7956 1.8003-8.6651 2.7859c-2.942 1.0105-8.7643 3.2055-8.7643 3.2055s-1.7946-0.74251-2.6417-1.3095c-1.5174-1.0156-1.6201-1.7276-1.6201-1.7276s2.8486 0.65401 4.779 0.23978c1.1054-0.2372 1.7415-1.1539 1.7415-1.1539s-0.86589-0.13161-1.6495-0.29972c-0.84944-0.18223-1.5963-0.43822-1.5963-0.43822s-0.91901-1.5206-1.4066-2.2629c-0.45295-0.68954-1.4102-2.034-1.4102-2.034s4.2728 1.2065 6.5303 1.1839c3.8608-0.0386 5.1981-1.68 5.1981-1.68s-5.0747 1.39-9.7503-1.8681c-3.1551-2.1985-5.1935-3.7062-5.1935-3.7062s-3.609-2.8312-7.9112-2.6624c-3.549 0.13924-5.4813 2.7497-5.4813 2.7497s-1.397 0.37415-3.0665 1.1772c-0.90881 0.43712-2.574 1.7653-2.574 1.7653s3.2047 0.1564 4.7785 0.39998c0.59327 0.0918 1.7188 0.53847 1.7188 0.53847s0.92318 0.55347 2.4169 1.4092c1.3038 0.74697 2.2784 1.1544 2.2784 1.1544s2.6441 2.6631-0.0377 9.2723c-1.9232 4.7397-7.2414 7.3288-7.2414 7.3288l3.576-0.41961s-0.73433 1.0356-1.4402 2.5538h6.7417v1.5048h-7.3437c-0.14582 0.41764-0.27076 0.85551-0.37931 1.3007h2.7512v1.5084h-3.0076c-0.0223 0.25314-0.0409 0.50712-0.0393 0.76223 2e-3 0.27332 0.0323 0.53027 0.0517 0.79375h7.8967v1.5084h-7.6915c1.2797 6.1923 7.1841 9.2377 7.1841 9.2377s-3.7186-0.65841-10.907-7.0616c-6.0658-5.4029-8.1313-10.588-8.1313-10.588s-4.2404-6.9376-3.883-16.726c0.33512-9.1762 4.8943-17.127 4.8943-17.127s-5.8067 5.3815-7.8538 15.43c-2.2016 10.808 1.2805 18.554 1.2805 18.554s3.3057 10.852 16.273 18.094c13.243 7.396 24.61 2.4763 24.61 2.4763l1.449 0.40152s-6.4635 5.8229-19.477 2.2087c-9.4199-2.6162-17.938-9.1302-17.938-9.1302s4.6431 7.8543 21.026 12.868c15.163 4.6404 24.068-2.9073 24.068-2.9073s5.1566 3.9224 12.134 4.0886c7.7599 0.18486 11.995-4.4158 11.995-4.4158s-5.1481 1.3373-13.306-1.0206c-1.7484-0.50537-6.323-1.958-9.1054-3.5207-1.9096-1.0726-4.2312-2.1013-6.4301-2.9554-3.708-1.4403-5.3227-1.7521-11.365-3.6422-1.7865-0.55887-3.9222-1.8242-3.9222-1.8242s2.5035-1.3556 6.4999-1.8195c3.8708-0.4494 7.2781 0.0749 7.2781 0.0749s6.6999 0.9012 11.127-1.0919c4.0319-1.8152 5.2493-5.1041 5.2493-5.1041s-2.9658 0.32391-5.9412 0.24391c-3.142-0.0845-6.1671-0.33641-6.1671-0.33641s-4.0794-0.41671-6.0575-0.2775c-1.3076 0.092-3.8437 0.61598-3.8437 0.61598s0.3049-0.7452 1.4459-1.2356c0.77022-0.33103 2.4696-0.47594 2.4696-0.47594s2.1606-0.16008 3.2406-0.24598c1.06-0.0843 2.1171-0.18337 3.1791-0.26407 2.7191-0.20668 5.4761-0.25243 8.1633-0.73742 3.2951-0.5947 5.9779-2.4743 5.9779-2.4743s2.7322-1.7025 4.8932-4.6989c1.8037-2.5009 2.389-5.3976 2.389-5.3976s-2.5675 2.7679-5.6953 3.9956c-3.1912 1.2526-8.7121 1.9182-8.7121 1.9182s-3.3095 0.42856-6.1686 0.77515c-2.0507 0.24859-6.0808 1.1942-6.0808 1.1942s1.9981-1.191 3.9481-2.0087c1.3693-0.57419 4.1894-1.5146 4.1894-1.5146s8.4087-2.4788 12.382-4.2943c4.7441-2.1677 7.9308-4.9873 7.9308-4.9873s3.2081-2.3263 5.5769-8.2951c1.9746-4.9754 1.0754-9.7043 1.0754-9.7043zm-54.065 9.1684s0.0897 0.54134-0.23462 1.0454c-0.34445 0.53547-0.60306 0.58343-0.60306 0.58343s0.48242 0.0955 0.52348 0.076c0.20202-0.0961 0.31033-0.17543 0.4408-0.26458 0.46623-0.3186 0.47388-0.39326 0.47388-0.39326s-0.042 0.16294-0.20929 0.41651c-0.18636 0.28252-0.33177 0.39326-0.33177 0.39326l0.23617 0.0894s-0.15321 0.35456-0.59842 0.51986c-0.36717 0.13633-0.63718 0.13835-0.97823 0.0765-0.35458-0.0643-0.36064-0.22789-0.94568-0.22789-0.52204 0-1.5002 0.4501-1.5002 0.4501s0.2816-0.55713 1.1343-0.95394c0.72588-0.3378 1.3141-0.23366 1.4025-0.25735 0.1732-0.0464 0.41176-0.36757 0.73639-0.83665 0.1687-0.24376 0.45372-0.71675 0.45372-0.71675zm-2.5492 29.968h3.3817v1.5002h-3.3817zm30.534 14.668s6.6811 2.3466 13.584 1.5892c7.0771-0.77641 10.931-3.8052 10.931-3.8052l2.9545 2.8941s-3.951 3.7907-11.648 3.7907c-8.2435 0-15.821-4.4688-15.821-4.4688zm-8.59-4.9879s10.618 3.1923 20.471 0.33868c9.556-2.7675 16.521-9.0336 16.521-9.0336l3.2803 5.0344s-9.2676 6.616-21.225 7.8848c-13.01 1.3806-19.048-4.2243-19.048-4.2243zm-13.946-40.1s2.148 0.7072 3.1726 1.1797c0.87222 0.40226 2.5173 1.4023 2.5173 1.4023s2.3326 1.3398 4.9939 1.8698c1.7983 0.35812 5.5064-0.43619 5.5064-0.43619s-1.2231 1.4214-3.589 1.9579c-1.4199 0.32197-2.8694 0.63058-4.1748 0.14784-1.6748-0.61932-2.2991-1.2101-4.5454-2.947-1.3493-1.0433-3.8809-3.1743-3.8809-3.1743zm-19.211 28.481s-1.4621-3.6127-1.4621-15.545c0-8.4591 2.7294-13.696 2.7294-13.696s1.7086-4.7339 7.2963-9.3084c5.6526-4.6277 10.85-4.8192 10.85-4.8192s4.7251-0.87797 10.576 0.94996c5.7651 1.8011 8.7163 5.667 8.7163 5.667s4.5518 4.7425 4.0452 10.13c-0.62306 6.6268-6.9285 9.798-6.9285 9.798s5.1777-1.5012 9.9874-3.7909c5.3877-2.5647 8.4858-4.6714 8.6677-5.1626 0.16479-0.44483-4e-3 -1.6686-5.1478-8.4188-3.1597-4.1466-7.3635-6.9248-7.3635-6.9248s-2.5863-2.0883-8.2566-3.9698c-5.1472-1.708-9.4574-1.5084-9.4574-1.5084s-3.856-0.065-8.0781 1.0396c-5.9663 1.3342-11.034 4.8501-14.71 9.6998-3.8468 5.2942-4.456 8.7761-4.456 8.7761s-1.6528 6.005-0.8903 13.421c0.79288 7.7105 3.8813 13.663 3.8813 13.663zm34.418-52.997a0.69105 0.69105 0 0 1-0.69105 0.69105 0.69105 0.69105 0 0 1-0.69105-0.69105 0.69105 0.69105 0 0 1 0.69105-0.69106 0.69105 0.69105 0 0 1 0.69105 0.69106zm-3.5807-2.9911a0.8781 0.8781 0 0 1-0.8781 0.87811 0.8781 0.8781 0 0 1-0.8781-0.87811 0.8781 0.8781 0 0 1 0.8781-0.8781 0.8781 0.8781 0 0 1 0.8781 0.8781zm-6.4222-1.8186a1.0184 1.0184 0 0 1-1.0184 1.0184 1.0184 1.0184 0 0 1-1.0184-1.0184 1.0184 1.0184 0 0 1 1.0184-1.0184 1.0184 1.0184 0 0 1 1.0184 1.0184zm-6.6924 1.829a0.8781 0.8781 0 0 1-0.8781 0.87811 0.8781 0.8781 0 0 1-0.87811-0.87811 0.8781 0.8781 0 0 1 0.87811-0.8781 0.8781 0.8781 0 0 1 0.8781 0.8781zm-3.9177 2.9824a0.69105 0.69105 0 0 1-0.69105 0.69105 0.69105 0.69105 0 0 1-0.69106-0.69105 0.69105 0.69105 0 0 1 0.69106-0.69105 0.69105 0.69105 0 0 1 0.69105 0.69105zm-0.73535 0.0499s0.90303 1.0223 1.6618 1.6645c0.78168 0.66159 1.5545 0.85519 1.9948 0.65392 0.32253-0.14744 0.6548-0.76679 0.62007-2.0708-0.0344-1.2926-0.40906-2.9438-0.40906-2.9438s1.144 1.9806 1.7567 2.7972c0.98933 1.3187 1.6693 1.4034 2.2356 1.3449 1.6828-0.17381 2.4442-6.3398 2.4442-6.3398s0.71184 3.2618 0.98679 4.0712c0.24371 0.71741 0.89633 2.1653 1.6071 2.2955 0.80482 0.1474 1.979-1.1069 2.5724-2.0013 0.50068-0.75466 1.244-2.2241 1.244-2.2241s-0.30423 2.157-0.30491 3.2133c-4.4e-4 0.68621 0.0264 1.6586 0.63033 1.9928 0.67247 0.37214 1.5508-0.43929 1.8069-0.6345 1.1902-0.90728 1.9873-1.9616 1.9873-1.9616s-1.3054 1.7888-1.9679 2.8378c-0.56402 0.89307-1.3452 2.8691-1.3452 2.8691s-2.8174-0.67488-4.2523-0.84844c-1.8965-0.2294-4.245-0.34429-5.7254-0.25096-1.9559 0.12331-4.5138 0.7786-4.5138 0.7786s-0.85442-1.7729-1.3475-2.6154c-0.49311-0.84249-1.6819-2.6281-1.6819-2.6281z" fill="url(#linearGradient15)" stroke-width="0"/></svg>
