<?xml version="1.0" encoding="UTF-8"?>
<!-- Created with Inkscape (http://www.inkscape.org/) -->
<svg width="395" height="110" version="1.1" viewBox="0 0 104.51 29.104" xml:space="preserve" xmlns="http://www.w3.org/2000/svg"><defs><linearGradient id="linearGradient2" x1="59.515" x2="59.515" y1="45.946" y2="73.494" gradientTransform="translate(-7.2779 -44.979)" gradientUnits="userSpaceOnUse"><stop stop-color="#c0c0c0" offset="0"/><stop stop-color="#fff" offset=".15071"/><stop stop-color="#c0c0c0" offset="1"/></linearGradient></defs><path d="m36.015 0.76181c-0.35869 0-0.36018 0.31833-0.36018 0.31833v0.82992h-1.9156s-0.339-0.012-0.339 0.34572c0 0.35979 0.339 0.34572 0.339 0.34572h1.9182v3.4143s-8.9e-5 0.1757-0.06098 0.22272c-0.1176 0.0909-0.44597 0.0052-0.44597 0.0052l-0.75034-0.2005s-0.27492-0.0702-0.40618 0.14986c-0.20433 0.34265 0.06925 0.48472 0.06925 0.48472s0.41568 0.20743 0.94258 0.27492c0.57069 0.0731 0.76843 0.01395 0.76843 0.01395s0.30058-0.0282 0.49248-0.30127c0.14326-0.20387 0.13436-0.45682 0.13436-0.45682l0.0036-3.5998h0.44028s0.25838 0.0216 0.25838-0.3483c0-0.36581-0.25838-0.34882-0.25838-0.34882h-0.46974v-0.83147s3e-3 -0.31833-0.36018-0.31833zm10.158 0.01912c-0.33258 0-0.34003 0.23771-0.34003 0.23771v1.5012h-0.83664c0.1007-0.0984 0.15059-0.24075 0.06511-0.38292 0 0-0.14085-0.238-0.33435-0.50384-0.18911-0.25983-0.37155-0.46664-0.37155-0.46664-0.23179-0.26455-0.74053 0.16417-0.54725 0.39119 0 0 0.16522 0.18939 0.35864 0.46612 0.16259 0.23262 0.29695 0.46515 0.31471 0.49609h-0.22841s-0.36764-0.02581-0.52917 0.10955c-0.21762 0.18235-0.20722 0.51883-0.20722 0.51883v3.6556s-2e-3 0.25838 0.36018 0.25838c0.35029 0 0.36018-0.25838 0.36018-0.25838v-3.6318h3.8845v2.683c-7e-3 0.47219 0.011 0.48796-0.31058 0.42581l-0.84388-0.18707s-0.30281-0.0554-0.38086 0.16588c-0.11666 0.3307 0.22738 0.4346 0.22738 0.4346l1.2433 0.25322c0.43609 0.0676 0.77101-0.23745 0.77101-0.76998v-3.0179s0.0316-0.31107-0.19017-0.5147c-0.15865-0.14568-0.48783-0.13436-0.48783-0.13436h-0.3452c0.0653-0.0768 0.19152-0.2286 0.32453-0.41134 0.1935-0.26585 0.33435-0.50384 0.33435-0.50384 0.21073-0.35056-0.39912-0.70133-0.57258-0.39481 0 0-0.14728 0.25829-0.32143 0.50746-0.19341 0.27672-0.35864 0.46664-0.35864 0.46664-0.0838 0.0985-0.0358 0.23458 0.0646 0.3359h-0.76274v-1.4919s-3e-3 -0.23771-0.34003-0.23771zm11.913 0.02739c-0.19876-7e-3 -0.30386 0.17415-0.30386 0.17415-0.18743 0.41063-0.37654 0.81176-0.57568 1.2046l-1.7637-1e-3c-0.38413 0-0.3844 0.69246 0 0.69246h1.3942c-0.17709 0.31241-0.36515 0.61909-0.57206 0.91881 0 0-0.23392 0.32654-0.20516 0.55862 0.0386 0.31164 0.30902 0.4532 0.30902 0.4532s0.7626 0.32891 1.5203 0.6935c-1.0716 0.75507-2.3947 0.90537-2.3947 0.90537-0.32035 0.0655-0.27035 0.6886 0.16485 0.63459 0 0 1.5631-0.12182 2.8794-1.2154 0.97531 0.50972 2.0598 1.1782 2.0598 1.1782s0.32561 0.17262 0.50074-0.13074c0.19229-0.33305-0.07028-0.47336-0.07028-0.47336s-0.57984-0.36337-1.9678-1.0826c0.93013-1.0625 1.1992-2.3205 1.2232-2.4402h0.82424c0.43388 0 0.43432-0.68885 0-0.68885l-3.129-0.0021c0.2182-0.455 0.43356-0.92759 0.43356-0.92759s0.133-0.26646-0.17467-0.41186c-0.0557-0.0263-0.10658-0.03809-0.15244-0.03979zm-26.552 0.28835c-0.26567 0-0.47956 0.21389-0.47956 0.47956v4.5971c0 0.26567 0.21389 0.47956 0.47956 0.47956h1.356c0.26567 0 0.47956-0.21389 0.47956-0.47956v-4.5971c0-0.26567-0.21389-0.47956-0.47956-0.47956zm36.365 0.21704c-0.41398 0-0.43697 0.68626 0 0.68626h2.1249v1.5627h-1.8955c-0.4443 0-0.45855 0.71934 0 0.71934h1.8965v1.8438h-2.3017c-0.46464 0-0.45921 0.7121 0 0.7121h5.4333c0.40688 0 0.40424-0.70693 0-0.70693h-2.373v-1.8573h1.9709c0.43629 0 0.43652-0.70487 0-0.70487h-1.9678v-1.5591h2.2242c0.32824 0 0.34451-0.69298 0-0.69298l-5.1118-0.0031zm-36.151 0.41134h0.86506c0.034 0 0.06149 0.0275 0.06149 0.0615v1.634c0 0.034-0.02749 0.0615-0.06149 0.0615h-0.86506c-0.034 0-0.0615-0.0275-0.0615-0.0615v-1.634c0-0.034 0.02749-0.0615 0.0615-0.0615zm2.4216 1.0847c-0.0647 3e-3 -0.13038 0.02343-0.18448 0.05323-0.12562 0.047-0.19948 0.1816-0.18242 0.31264 7e-3 0.11819 0.0877 0.2137 0.13022 0.32091 0.2886 0.59878 0.55408 1.209 0.78496 1.8324 0.0654 0.1392 0.24044 0.19803 0.38086 0.14211 0.13409-0.0385 0.26797-0.15171 0.25425-0.30334-0.0242-0.14159-0.0737-0.27589-0.11317-0.41393-0.12642-0.38919-0.28591-0.77884-0.4656-1.1384-0.12472-0.2392-0.23525-0.4839-0.39016-0.709-0.0505-0.0743-0.13133-0.10028-0.21446-0.09663zm23.463 0.06873h1.9151c-0.0147 0.12085-0.16599 1.1732-1.0883 2.1327-0.96509-0.48835-1.6077-0.78858-1.6077-0.78858s0.49852-0.82594 0.78083-1.3441zm-12.509 0.6444c-0.29378 0-0.5302 0.23642-0.5302 0.5302v1.249c0 0.29378 0.23642 0.5302 0.5302 0.5302h2.1063c0.29378 0 0.53072-0.23642 0.53072-0.5302v-1.249c0-0.29378-0.23694-0.5302-0.53072-0.5302zm-13.354 0.59996h0.85576c0.0367 0 0.06615 0.02955 0.06615 0.06615v1.7839c0 0.0366-0.02945 0.06615-0.06615 0.06615h-0.85576c-0.0366 0-0.06615-0.02945-0.06615-0.06615v-1.7839c0-0.0367 0.02955-0.06615 0.06615-0.06615zm13.635 0.05478h1.5606c0.0647 0 0.11679 0.0521 0.11679 0.11679v0.74311c0 0.0647-0.0521 0.11627-0.11679 0.11627h-1.5606c-0.0647 0-0.11679-0.0516-0.11679-0.11627v-0.74311c0-0.0647 0.0521-0.11679 0.11679-0.11679zm50.721 4.5387a6.8709 6.5462 0 0 0-6.8709 6.5464 6.8709 6.5462 0 0 0 6.2797 6.5061c1.2937 1.4807 2.9565 2.7984 5.0178 2.6494 1.1682-0.0572 2.3597-0.58171 3.0417-1.5575-0.37194-0.44888-0.74427-0.89781-1.1162-1.3467-0.48432 0.67538-1.3003 1.0816-2.1746 1.0826-0.87022-1e-3 -1.6829-0.40398-2.1678-1.0744a6.8709 6.5462 0 0 0 4.8612-6.2596 6.8709 6.5462 0 0 0-6.8709-6.5464zm-57.404 0.20206-9.34 1e-3v12.731h9.5746v-2.033h-7.1489v-3.4282h6.0927v-1.9751h-6.0896v-3.2546h6.9112v-2.0412zm26.82 0.0021-6.4813 5.17e-4c-0.0585 0-0.10594 0.0619-0.10594 0.13901v12.437c0 0.077 0.0475 0.13901 0.10594 0.13901h6.4807c2e-3 0 0.0031-9.93e-4 0.0041-1e-3h0.0041c2.6635 0 5.8565-2.5176 5.8565-6.3547 0-3.8329-3.1856-6.3488-5.8472-6.3547-6e-3 -1e-3 -0.01095-0.0052-0.01705-0.0052zm-64.627 0.0052v2.0298h4.1899v10.706h2.3957v-10.7l4.2059-0.0186v-2.0174h-10.792zm13.885 1e-3v12.745h2.4102v-3.7073h3.328l2.5714 3.7016h2.6045l-2.9011-4.1501s3.1668-1.1381 2.574-4.8054c-0.62922-3.8929-4.8752-3.7832-4.8752-3.7832l-5.7118-5.17e-4zm58.543 0.0021 5.0167 8.1948v4.5186h2.4097v-4.5015l4.9832-8.2109h-2.3999l-3.7424 6.1195-3.6814-6.1206h-2.5859zm-28.473 1e-3 -1.972 0.0031v12.724h2.3554v-8.6517l6.9712 8.63h1.9472v-12.697h-2.344v8.5344l-6.9577-8.5426zm51.215 1.8697a4.4648 4.4913 0 0 1 4.4648 4.4912 4.4648 4.4913 0 0 1-4.4648 4.4912 4.4648 4.4913 0 0 1-4.4648-4.4912 4.4648 4.4913 0 0 1 4.4648-4.4912zm-34.735 0.1478h3.5124c3e-3 0 0.0063 0.0021 0.0083 0.0031 1.4446 2e-3 4.1636 1.101 4.1636 4.3362 0 3.2029-2.7241 4.3367-4.1677 4.3367h-0.0021c-7.1e-4 4e-5 -0.0011 5.17e-4 -0.0021 5.17e-4h-3.5124c-0.0317 0-0.05736-0.04197-0.05736-0.09457v-8.4868c0-0.0526 0.02566-0.09457 0.05736-0.09457v-5.47e-4zm-44.127 0.03721h3.36c3e-3 0 0.0063 0.0011 0.0093 0.0021a2.5003 2.5003 0 0 1 2.4955 2.5006 2.5003 2.5003 0 0 1-2.5001 2.5001c-1e-3 1.1e-4 -0.0031 5.17e-4 -0.0041 5.17e-4h-3.36c-0.0303 0-0.05478-0.02448-0.05478-0.05478v-4.8932c0-0.0303 0.02448-0.05478 0.05478-0.05478l-5.17e-4 -5.17e-4zm66.599 13.436c-0.54964 0.0072-1.0995 0.22884-1.4893 0.61598-0.50568 0.51914-0.69833 1.3331-0.44338 2.0169 0.1785 0.54441 0.62937 0.97628 1.1689 1.1586 0.76413 0.28658 1.6457 0.07617 2.2789-0.41186-4.86e-4 -5.44e-4 -0.0011-1e-3 -0.0016-0.0016h0.0016v-1.496h-0.84646v1.1059c-0.3437 0.14454-0.7331 0.18745-1.0821 0.04082-0.4743-0.17906-0.79858-0.71069-0.69453-1.2144 0.06457-0.43142 0.35384-0.83958 0.78135-0.97152 0.47427-0.1744 1.0054 0.04249 1.3291 0.40359l0.55914-0.57051c-0.22798-0.24333-0.5161-0.43001-0.82734-0.54829-0.23475-0.0901-0.48449-0.1309-0.73432-0.12764zm-47.307 0.08578c-0.0164 0-0.02946 0.01512-0.02946 0.03152v3.7067h0.87902v-1.0253h0.73639l0.71468 1.0232h0.9648l-0.82992-1.1911a1.3494 1.3552 0 0 0 0.7307-1.1875 1.3494 1.3552 0 0 0-1.3477-1.3555c-2e-3 -2.6e-4 -0.0042-0.0021-0.0062-0.0021h-1.8123zm-16.675 0.01757-0.76274 0.0062v3.7135h0.85473v-2.0877l1.016 1.6971h0.39688l1.0671-1.7565v2.1627h0.85524v-3.731h-0.75758l-1.3374 2.2087-1.3322-2.2128zm48.761 0.0026-0.8816 5.17e-4v3.699h0.8816v-3.6995zm-39.184 0.0016-1.6691 3.7042h0.96945l0.33073-0.77515h1.603l0.35657 0.78755h0.98702l-1.6754-3.7166zm15.085 0v3.729h0.89917v-0.96325l0.45785-0.45682 1.1669 1.417 1.0718 1e-3 -1.6454-2.0485 1.5575-1.6785-1.0656 1e-3 -1.5276 1.6195v-1.6195l-0.91467-1e-3zm15.365 0v0.73691h1.171v2.9817h0.89814v-2.9745l1.1565 5.17e-4v-0.74466h-3.2256zm-4.499 0.0041-2.7916 0.0031v3.7062h2.8753v-0.72657h-1.9627v-0.79685h1.7033v-0.71003h-1.7281v-0.76068h1.9038v-0.7152zm18.226 1e-3 1e-3 3.7166h0.91364v-2.19l1.7849 2.1818h0.709v-3.7083h-0.88677v2.1156l-1.7632-2.1156h-0.75861zm-36.218 0.69763h0.83406a0.62052 0.62318 0 0 1 0.62063 0.62322 0.62052 0.62318 0 0 1-0.62063 0.62528h-0.83406c-7e-3 0-0.01395-0.0063-0.01395-0.01395v-1.2206c0-8e-3 0.0063-0.01395 0.01395-0.01395zm-7.5091 0.17415 0.54415 1.3565h-1.1271l0.58291-1.3565z" fill="url(#linearGradient2)"/></svg>
